<svg version="1.1" id="Layer_1" xmlns="http://www.w3.org/2000/svg" xmlns:xlink="http://www.w3.org/1999/xlink" x="0px" y="0px"
	 width="100%" viewBox="0 0 677 320" enable-background="new 0 0 677 320" xml:space="preserve">
<path fill="none" stroke-opacity="0" stroke="none" 
	d="
M423.000000,321.000000 
	C282.000031,321.000000 141.500061,321.000000 1.000075,321.000000 
	C1.000050,214.333389 1.000050,107.666786 1.000025,1.000133 
	C226.666550,1.000088 452.333099,1.000088 677.999756,1.000044 
	C677.999817,107.666527 677.999817,214.333054 677.999878,320.999786 
	C593.166687,321.000000 508.333344,321.000000 423.000000,321.000000 
M340.980988,204.286591 
	C340.980988,191.231644 340.980988,178.176697 340.980988,165.068451 
	C333.866730,165.068451 327.393585,165.068451 320.994385,164.125397 
	C320.994385,157.853119 320.994385,151.580841 320.994385,144.925842 
	C314.127869,144.925842 307.718292,144.925842 300.932434,144.925842 
	C300.932434,138.134705 300.932434,131.724991 300.932434,125.227203 
	C294.136841,125.227203 287.736603,125.227203 281.353210,125.227203 
	C281.353210,171.941910 281.353210,218.428513 281.353210,264.649963 
	C288.115479,264.649963 294.521912,264.649963 301.268402,264.649963 
	C301.268402,231.253143 301.268402,198.205643 301.268402,164.926575 
	C308.107056,164.926575 314.584808,164.926575 321.004486,165.871475 
	C321.004486,178.855179 321.004486,191.838867 321.004486,205.127167 
	C328.030273,205.127167 334.455658,205.127167 340.991608,206.042343 
	C340.991608,212.300797 340.991608,218.559235 340.991608,225.196014 
	C347.997528,225.196014 354.403870,225.196014 361.184784,225.196014 
	C361.184784,238.654556 361.184784,251.722122 361.184784,264.715881 
	C367.977905,264.715881 374.380096,264.715881 380.758667,264.715881 
	C380.758667,218.057480 380.758667,171.683624 380.758667,125.239151 
	C374.113617,125.239151 367.712372,125.239151 360.940918,125.239151 
	C360.940918,151.864899 360.940918,178.254471 360.940918,205.279495 
	C353.964081,205.279495 347.355286,205.279495 340.980988,204.286591 
M560.994629,124.125641 
	C560.994629,117.852127 560.994629,111.578606 560.994629,105.225182 
	C540.795227,105.225182 521.068604,105.225182 500.947845,105.225182 
	C500.947845,111.848267 500.947845,118.258202 500.947845,125.049187 
	C494.154602,125.049187 487.743225,125.049187 481.367615,125.049187 
	C481.367615,165.277267 481.367615,205.109039 481.367615,245.334778 
	C488.143951,245.334778 494.553680,245.334778 501.333038,245.334778 
	C501.333038,252.140060 501.333038,258.549988 501.333038,264.655579 
	C528.119507,264.655579 554.510254,264.655579 581.290771,264.655579 
	C581.290771,257.904083 581.290771,251.496979 581.290771,244.712219 
	C588.092651,244.712219 594.499512,244.712219 600.684326,244.712219 
	C600.684326,211.263763 600.684326,178.211075 600.684326,145.075821 
	C593.889893,145.075821 587.410461,145.075821 580.995056,144.131149 
	C580.996643,139.010483 580.908997,133.887604 581.035522,128.770035 
	C581.103638,126.015533 580.065613,124.893188 577.274231,124.965569 
	C571.827026,125.106804 566.374512,125.046089 560.994629,124.125641 
M140.499832,185.000000 
	C147.265656,185.000000 154.031464,185.000000 160.712891,185.000000 
	C160.712891,144.688095 160.712891,104.952843 160.712891,65.287094 
	C127.355759,65.287094 94.286514,65.287094 61.282658,65.287094 
	C61.282658,131.973969 61.282658,198.373367 61.282658,264.714661 
	C74.638870,264.714661 87.710487,264.714661 101.174767,264.714661 
	C101.174767,238.026169 101.174767,211.620773 101.174767,185.000000 
	C114.214226,185.000000 126.857048,185.000000 140.499832,185.000000 
M401.000000,196.500000 
	C401.000000,219.260742 401.000000,242.021484 401.000000,264.712036 
	C414.644531,264.712036 427.716064,264.712036 441.174744,264.712036 
	C441.174744,204.691330 441.174744,144.957626 441.174744,84.828217 
	C461.304199,84.828217 481.044189,84.828217 500.711548,84.828217 
	C500.711548,78.020233 500.711548,71.615265 500.711548,65.284996 
	C447.355743,65.284996 394.288879,65.284996 341.288483,65.284996 
	C341.288483,71.979553 341.288483,78.385895 341.288483,85.181702 
	C361.314148,85.181702 381.054108,85.181702 401.000000,85.181702 
	C401.000000,122.219688 401.000000,158.859848 401.000000,196.500000 
M197.350006,245.000000 
	C199.962799,244.603897 201.224518,245.291687 201.074326,248.364288 
	C200.808792,253.796494 200.999893,259.251007 200.999893,264.761230 
	C221.213699,264.761230 240.949509,264.761230 260.765259,264.761230 
	C260.765259,224.789154 260.765259,185.056229 260.765259,145.237747 
	C254.123566,145.237747 247.718964,145.237747 240.923843,145.237747 
	C240.923843,178.542191 240.923843,211.611404 240.923843,244.761871 
	C234.122681,244.761871 227.718033,244.761871 220.917374,244.761871 
	C220.917374,238.121277 220.917374,231.707047 220.917374,224.911316 
	C214.115067,224.911316 207.700775,224.911316 200.909546,224.911316 
	C200.909546,198.110580 200.909546,171.706589 200.909546,145.246017 
	C194.106598,145.246017 187.701874,145.246017 181.243408,145.246017 
	C181.243408,178.559845 181.243408,211.627106 181.243408,245.000000 
	C186.447464,245.000000 191.414047,245.000000 197.350006,245.000000 
z"/>
<path fill="#FFFFFF" opacity="1.000000" stroke="none" 
	d="
M139.999847,185.000000 
	C126.857048,185.000000 114.214226,185.000000 101.174767,185.000000 
	C101.174767,211.620773 101.174767,238.026169 101.174767,264.714661 
	C87.710487,264.714661 74.638870,264.714661 61.282658,264.714661 
	C61.282658,198.373367 61.282658,131.973969 61.282658,65.287094 
	C94.286514,65.287094 127.355759,65.287094 160.712891,65.287094 
	C160.712891,104.952843 160.712891,144.688095 160.712891,185.000000 
	C154.031464,185.000000 147.265656,185.000000 139.999847,185.000000 
M101.000000,113.500000 
	C101.000000,130.594376 101.000000,147.688736 101.000000,164.713379 
	C114.643089,164.713379 127.713959,164.713379 140.714905,164.713379 
	C140.714905,138.024139 140.714905,111.622467 140.714905,85.286568 
	C127.356995,85.286568 114.286125,85.286568 101.000000,85.286568 
	C101.000000,94.547646 101.000000,103.523827 101.000000,113.500000 
z"/>
<path fill="#FFFFFF" opacity="1.000000" stroke="none" 
	d="
M401.000000,196.000000 
	C401.000000,158.859848 401.000000,122.219688 401.000000,85.181702 
	C381.054108,85.181702 361.314148,85.181702 341.288483,85.181702 
	C341.288483,78.385895 341.288483,71.979553 341.288483,65.284996 
	C394.288879,65.284996 447.355743,65.284996 500.711548,65.284996 
	C500.711548,71.615265 500.711548,78.020233 500.711548,84.828217 
	C481.044189,84.828217 461.304199,84.828217 441.174744,84.828217 
	C441.174744,144.957626 441.174744,204.691330 441.174744,264.712036 
	C427.716064,264.712036 414.644531,264.712036 401.000000,264.712036 
	C401.000000,242.021484 401.000000,219.260742 401.000000,196.000000 
z"/>
<path fill="#FFFFFF" opacity="1.000000" stroke="none" 
	d="
M580.931030,145.075821 
	C587.410461,145.075821 593.889893,145.075821 600.684326,145.075821 
	C600.684326,178.211075 600.684326,211.263763 600.684326,244.712219 
	C594.499512,244.712219 588.092651,244.712219 581.290771,244.712219 
	C581.290771,251.496979 581.290771,257.904083 581.290771,264.655579 
	C554.510254,264.655579 528.119507,264.655579 501.333038,264.655579 
	C501.333038,258.549988 501.333038,252.140060 501.333038,245.334778 
	C494.553680,245.334778 488.143951,245.334778 481.367615,245.334778 
	C481.367615,205.109039 481.367615,165.277267 481.367615,125.049187 
	C487.743225,125.049187 494.154602,125.049187 500.947845,125.049187 
	C500.947845,118.258202 500.947845,111.848267 500.947845,105.225182 
	C521.068604,105.225182 540.795227,105.225182 560.994629,105.225182 
	C560.994629,111.578606 560.994629,117.852127 560.996094,124.562859 
	C560.997620,125.000076 561.069946,124.930061 560.597900,124.962555 
	C547.194336,124.995049 534.262878,124.995049 520.943604,124.995049 
	C520.943604,131.853821 520.943604,138.263535 520.943604,145.049164 
	C514.153870,145.049164 507.744019,145.049164 501.192749,145.049164 
	C501.192749,171.825653 501.192749,198.208969 501.192749,225.161713 
	C507.901428,225.161713 514.438965,225.161713 521.331055,225.161713 
	C521.331055,232.138885 521.331055,238.547440 521.331055,244.649887 
	C534.789551,244.649887 547.853882,244.649887 561.299927,244.649887 
	C561.299927,237.893250 561.299927,231.484680 561.299927,224.707275 
	C568.098816,224.707275 574.504822,224.707275 581.069946,224.707275 
	C581.069946,197.852936 581.069946,171.391479 581.034912,144.966217 
	C580.999939,145.002411 580.931030,145.075821 580.931030,145.075821 
z"/>
<path fill="#FFFFFF" opacity="1.000000" stroke="none" 
	d="
M196.865326,245.000000 
	C191.414047,245.000000 186.447464,245.000000 181.243408,245.000000 
	C181.243408,211.627106 181.243408,178.559845 181.243408,145.246017 
	C187.701874,145.246017 194.106598,145.246017 200.909546,145.246017 
	C200.909546,171.706589 200.909546,198.110580 200.909546,224.911316 
	C207.700775,224.911316 214.115067,224.911316 220.917374,224.911316 
	C220.917374,231.707047 220.917374,238.121277 220.917374,244.761871 
	C227.718033,244.761871 234.122681,244.761871 240.923843,244.761871 
	C240.923843,211.611404 240.923843,178.542191 240.923843,145.237747 
	C247.718964,145.237747 254.123566,145.237747 260.765259,145.237747 
	C260.765259,185.056229 260.765259,224.789154 260.765259,264.761230 
	C240.949509,264.761230 221.213699,264.761230 200.999893,264.761230 
	C200.999893,259.251007 200.808792,253.796494 201.074326,248.364288 
	C201.224518,245.291687 199.962799,244.603897 196.865326,245.000000 
z"/>
<path fill="#FFFFFF" opacity="1.000000" stroke="none" 
	d="
M321.062561,164.926575 
	C314.584808,164.926575 308.107056,164.926575 301.268402,164.926575 
	C301.268402,198.205643 301.268402,231.253143 301.268402,264.649963 
	C294.521912,264.649963 288.115479,264.649963 281.353210,264.649963 
	C281.353210,218.428513 281.353210,171.941910 281.353210,125.227203 
	C287.736603,125.227203 294.136841,125.227203 300.932434,125.227203 
	C300.932434,131.724991 300.932434,138.134705 300.932434,144.925842 
	C307.718292,144.925842 314.127869,144.925842 320.994385,144.925842 
	C320.994385,151.580841 320.994385,157.853119 320.994080,164.562592 
	C320.993744,164.999786 321.062561,164.926575 321.062561,164.926575 
z"/>
<path fill="#FFFFFF" opacity="1.000000" stroke="none" 
	d="
M340.746490,205.279495 
	C347.355286,205.279495 353.964081,205.279495 360.940918,205.279495 
	C360.940918,178.254471 360.940918,151.864899 360.940918,125.239151 
	C367.712372,125.239151 374.113617,125.239151 380.758667,125.239151 
	C380.758667,171.683624 380.758667,218.057480 380.758667,264.715881 
	C374.380096,264.715881 367.977905,264.715881 361.184784,264.715881 
	C361.184784,251.722122 361.184784,238.654556 361.184784,225.196014 
	C354.403870,225.196014 347.997528,225.196014 340.991608,225.196014 
	C340.991608,218.559235 340.991608,212.300797 340.905579,205.619644 
	C340.819580,205.196945 340.746490,205.279495 340.746490,205.279495 
z"/>
<path fill="#FFFFFF" opacity="1.000000" stroke="none" 
	d="
M320.957092,165.034119 
	C327.393585,165.068451 333.866730,165.068451 340.980988,165.068451 
	C340.980988,178.176697 340.980988,191.231644 340.863739,204.783051 
	C340.746490,205.279495 340.819580,205.196945 340.850342,205.162048 
	C334.455658,205.127167 328.030273,205.127167 321.004486,205.127167 
	C321.004486,191.838867 321.004486,178.855179 321.033508,165.399017 
	C321.062561,164.926575 320.993744,164.999786 320.957092,165.034119 
z"/>
<path fill="#FFFFFF" opacity="1.000000" stroke="none" 
	d="
M560.960938,125.034531 
	C566.374512,125.046089 571.827026,125.106804 577.274231,124.965569 
	C580.065613,124.893188 581.103638,126.015533 581.035522,128.770035 
	C580.908997,133.887604 580.996643,139.010483 580.963013,144.603485 
	C580.931030,145.075821 580.999939,145.002411 580.569092,144.998688 
	C575.600159,144.940201 571.055847,145.012482 566.526001,144.790070 
	C562.962341,144.615082 560.409668,143.524719 560.898315,138.897369 
	C561.385132,134.286972 561.046570,129.589401 561.069946,124.930061 
	C561.069946,124.930061 560.997620,125.000076 560.960938,125.034531 
z"/>
<path fill="none" stroke-opacity="0" stroke="none" 
	d="
M101.000000,113.000000 
	C101.000000,103.523827 101.000000,94.547646 101.000000,85.286568 
	C114.286125,85.286568 127.356995,85.286568 140.714905,85.286568 
	C140.714905,111.622467 140.714905,138.024139 140.714905,164.713379 
	C127.713959,164.713379 114.643089,164.713379 101.000000,164.713379 
	C101.000000,147.688736 101.000000,130.594376 101.000000,113.000000 
z"/>
<path fill="none" stroke-opacity="0" stroke="none" 
	d="
M560.597839,124.962555 
	C561.046570,129.589401 561.385132,134.286972 560.898315,138.897369 
	C560.409668,143.524719 562.962341,144.615082 566.526001,144.790070 
	C571.055847,145.012482 575.600159,144.940201 580.604126,144.962494 
	C581.069946,171.391479 581.069946,197.852936 581.069946,224.707275 
	C574.504822,224.707275 568.098816,224.707275 561.299927,224.707275 
	C561.299927,231.484680 561.299927,237.893250 561.299927,244.649887 
	C547.853882,244.649887 534.789551,244.649887 521.331055,244.649887 
	C521.331055,238.547440 521.331055,232.138885 521.331055,225.161713 
	C514.438965,225.161713 507.901428,225.161713 501.192749,225.161713 
	C501.192749,198.208969 501.192749,171.825653 501.192749,145.049164 
	C507.744019,145.049164 514.153870,145.049164 520.943604,145.049164 
	C520.943604,138.263535 520.943604,131.853821 520.943604,124.995049 
	C534.262878,124.995049 547.194336,124.995049 560.597839,124.962555 
z"/>
</svg>
